<svg width="42" height="42" viewBox="0 0 42 42" fill="none" xmlns="http://www.w3.org/2000/svg">
<g clip-path="url(#clip0_74_546)">
<path d="M5.74523 19.145C5.25365 19.6372 4.97754 20.3044 4.97754 21C4.97754 21.6956 5.25365 22.3628 5.74523 22.855L15.6432 32.7565C15.8871 33.0003 16.1765 33.1938 16.4951 33.3257C16.8137 33.4577 17.1551 33.5256 17.5 33.5256C17.8448 33.5256 18.1863 33.4577 18.5048 33.3257C18.8234 33.1938 19.1129 33.0003 19.3567 32.7565C19.6006 32.5127 19.794 32.2232 19.9259 31.9046C20.0579 31.586 20.1258 31.2446 20.1258 30.8998C20.1258 30.5549 20.0579 30.2135 19.9259 29.8949C19.794 29.5763 19.6006 29.2868 19.3567 29.043L13.9387 23.625H34.125C34.8212 23.625 35.4888 23.3484 35.9811 22.8562C36.4734 22.3639 36.75 21.6962 36.75 21C36.75 20.3038 36.4734 19.6361 35.9811 19.1438C35.4888 18.6516 34.8212 18.375 34.125 18.375H13.9387L19.3567 12.957C19.8489 12.4646 20.1254 11.7968 20.1252 11.1005C20.125 10.4043 19.8483 9.73659 19.3559 9.24438C18.8634 8.75217 18.1956 8.47574 17.4994 8.47591C16.8031 8.47607 16.1354 8.75281 15.6432 9.24525L5.74523 19.145Z" fill="#3F940A"/>
</g>
<defs>
<clipPath id="clip0_74_546">
<rect width="42" height="42" fill="white"/>
</clipPath>
</defs>
</svg>
