<svg width="395" height="885" viewBox="0 0 395 885" fill="none" xmlns="http://www.w3.org/2000/svg">
<path d="M13.8672 40.918C5.76172 40.918 0.78125 35.6445 0.78125 27.2461C0.78125 19.043 5.81055 13.5254 13.5742 13.5254C20.5566 13.5254 26.0254 17.9199 26.0254 26.9531V29.0039H7.91016C7.91016 33.0078 10.3027 35.498 14.0137 35.498C16.4551 35.498 18.2129 34.4238 18.9453 32.8125H25.8301C24.8047 37.6953 20.4102 40.918 13.8672 40.918ZM7.91016 24.4629H19.1895C19.1895 21.2402 16.9434 18.9453 13.7207 18.9453C10.4004 18.9453 8.03223 21.4111 7.91016 24.4629ZM30.5664 40.3809V13.8672H37.5488V18.457H37.8418C38.8184 15.1855 41.2598 13.4766 44.2383 13.4766C44.9707 13.4766 45.8984 13.5742 46.5332 13.7207V20.166C45.8496 19.9707 44.4824 19.7754 43.457 19.7754C40.1855 19.7754 37.793 22.0703 37.793 25.293V40.3809H30.5664ZM67.627 40.3809H59.7168L71.9727 5.0293H81.3965L93.6035 40.3809H85.7422L83.1055 32.2266H70.3125L67.627 40.3809ZM72.168 26.5137H81.25L76.8066 12.9883H76.5625L72.168 26.5137ZM104.688 5.0293V40.3809H97.4609V5.0293H104.688ZM122.217 40.918C114.209 40.918 109.229 35.4004 109.229 27.1973C109.229 18.9941 114.209 13.5254 122.217 13.5254C130.225 13.5254 135.254 18.9941 135.254 27.1973C135.254 35.4004 130.225 40.918 122.217 40.918ZM122.266 35.3027C125.977 35.3027 127.881 31.8359 127.881 27.1973C127.881 22.5098 125.977 19.043 122.266 19.043C118.506 19.043 116.553 22.5098 116.553 27.1973C116.553 31.8359 118.506 35.3027 122.266 35.3027ZM147.021 25.0488V40.3809H139.795V13.8672H146.68V18.5059H146.973C148.193 15.4297 151.025 13.5254 154.932 13.5254C160.449 13.5254 164.111 17.2852 164.062 23.4863V40.3809H156.885V24.7559C156.885 21.4844 155.078 19.5312 152.1 19.5312C149.072 19.5312 147.021 21.5332 147.021 25.0488ZM181.689 40.918C173.584 40.918 168.604 35.6445 168.604 27.2461C168.604 19.043 173.633 13.5254 181.396 13.5254C188.379 13.5254 193.848 17.9199 193.848 26.9531V29.0039H175.732C175.732 33.0078 178.125 35.498 181.836 35.498C184.277 35.498 186.035 34.4238 186.768 32.8125H193.652C192.627 37.6953 188.232 40.918 181.689 40.918ZM175.732 24.4629H187.012C187.012 21.2402 184.766 18.9453 181.543 18.9453C178.223 18.9453 175.854 21.4111 175.732 24.4629ZM249.756 17.2852V22.3633H243.457V44.7754H237.207V0.439453H243.457V17.2852H249.756ZM216.016 4.6875V28.7598C221.704 28.6865 227.808 28.1494 234.229 26.8555L234.863 32.0312C227.441 33.5449 220.215 33.9355 213.672 33.9355H209.814V4.6875H216.016ZM290.039 3.07617V7.42188H253.564V3.07617H268.75V0H275V3.07617H290.039ZM271.875 8.54492C281.738 8.54492 286.816 10.2539 286.816 14.1113C286.816 17.5293 282.812 19.2627 275 19.6289V21.6797H292.139V26.123H251.611V21.6797H268.75V19.6289C260.889 19.2627 256.885 17.5293 256.934 14.1113C256.885 10.2539 261.963 8.54492 271.875 8.54492ZM271.875 12.5C265.82 12.5 263.574 12.9395 263.574 14.1113C263.574 15.2832 265.82 15.7715 271.875 15.7715C277.832 15.7715 280.225 15.2832 280.225 14.1113C280.225 12.9395 277.832 12.5 271.875 12.5ZM287.207 27.9785V38.1348H262.646V40.2344H288.379V44.5801H256.348V34.082H280.859V32.2754H256.299V27.9785H287.207ZM335.498 34.8145V39.9414H294.824V34.8145H311.963V28.125H299.512V13.1836H324.658V8.30078H299.463V3.32031H330.811V18.0664H305.762V23.0469H331.836V28.125H318.164V34.8145H335.498ZM390.088 24.9512V29.9316H372.803V44.873H366.65V29.9316H349.561V24.9512H390.088ZM386.475 2.7832V7.66602H373.535C374.146 12.0117 379.053 16.3818 388.184 17.4805L385.938 22.3633C378.125 21.3135 372.534 17.9688 369.873 13.3789C367.139 17.9688 361.597 21.3135 353.857 22.3633L351.562 17.4805C360.547 16.3818 365.503 12.0117 366.211 7.66602H353.223V2.7832H386.475ZM40.9668 82.4121V87.3438H24.2188V95.0098H18.0664V87.3438H0.292969V82.4121H40.9668ZM35.7422 62.3926V78.75H5.37109V62.3926H35.7422ZM11.4746 67.2266V73.916H29.6387V67.2266H11.4746ZM36.4746 99.1113V104.092H5.07812V91.1523H11.2793V99.1113H36.4746ZM391.357 77.2852V82.3633H385.059V104.775H378.809V60.4395H385.059V77.2852H391.357ZM357.617 64.6875V88.7598C363.306 88.6865 369.409 88.1494 375.83 86.8555L376.465 92.0312C369.043 93.5449 361.816 93.9355 355.273 93.9355H351.416V64.6875H357.617ZM38.7695 123.076V127.422H2.29492V123.076H17.4805V120H23.7305V123.076H38.7695ZM20.6055 128.545C30.4688 128.545 35.5469 130.254 35.5469 134.111C35.5469 137.529 31.543 139.263 23.7305 139.629V141.68H40.8691V146.123H0.341797V141.68H17.4805V139.629C9.61914 139.263 5.61523 137.529 5.66406 134.111C5.61523 130.254 10.6934 128.545 20.6055 128.545ZM20.6055 132.5C14.5508 132.5 12.3047 132.939 12.3047 134.111C12.3047 135.283 14.5508 135.771 20.6055 135.771C26.5625 135.771 28.9551 135.283 28.9551 134.111C28.9551 132.939 26.5625 132.5 20.6055 132.5ZM35.9375 147.979V158.135H11.377V160.234H37.1094V164.58H5.07812V154.082H29.5898V152.275H5.0293V147.979H35.9375ZM84.2285 154.814V159.941H43.5547V154.814H60.6934V148.125H48.2422V133.184H73.3887V128.301H48.1934V123.32H79.541V138.066H54.4922V143.047H80.5664V148.125H66.8945V154.814H84.2285ZM138.818 144.951V149.932H121.533V164.873H115.381V149.932H98.291V144.951H138.818ZM135.205 122.783V127.666H122.266C122.876 132.012 127.783 136.382 136.914 137.48L134.668 142.363C126.855 141.313 121.265 137.969 118.604 133.379C115.869 137.969 110.327 141.313 102.588 142.363L100.293 137.48C109.277 136.382 114.233 132.012 114.941 127.666H101.953V122.783H135.205ZM182.129 142.412V147.344H165.381V155.01H159.229V147.344H141.455V142.412H182.129ZM176.904 122.393V138.75H146.533V122.393H176.904ZM152.637 127.227V133.916H170.801V127.227H152.637ZM177.637 159.111V164.092H146.24V151.152H152.441V159.111H177.637ZM230.273 142.705C230.273 154.229 223.096 160.869 213.77 160.869C204.346 160.869 197.217 154.18 197.217 142.705C197.217 131.182 204.346 124.541 213.77 124.541C223.096 124.541 230.273 131.182 230.273 142.705ZM222.803 142.705C222.803 135.137 219.238 131.035 213.77 131.035C208.301 131.035 204.688 135.137 204.688 142.705C204.688 150.273 208.301 154.375 213.77 154.375C219.238 154.375 222.803 150.273 222.803 142.705ZM235.4 160.381V133.867H242.383V138.457H242.676C243.652 135.186 246.094 133.477 249.072 133.477C249.805 133.477 250.732 133.574 251.367 133.721V140.166C250.684 139.971 249.316 139.775 248.291 139.775C245.02 139.775 242.627 142.07 242.627 145.293V160.381H235.4ZM263.818 160.82C257.764 160.82 253.027 155.986 253.027 147.148C253.027 138.066 257.959 133.525 263.818 133.525C268.262 133.525 270.361 136.162 271.338 138.311H271.582V125.029H278.809V160.381H271.68V156.133H271.338C270.312 158.33 268.115 160.82 263.818 160.82ZM266.064 155.059C269.678 155.059 271.729 151.885 271.729 147.1C271.729 142.314 269.678 139.287 266.064 139.287C262.402 139.287 260.449 142.461 260.449 147.1C260.449 151.787 262.402 155.059 266.064 155.059ZM296.631 160.918C288.525 160.918 283.545 155.645 283.545 147.246C283.545 139.043 288.574 133.525 296.338 133.525C303.32 133.525 308.789 137.92 308.789 146.953V149.004H290.674C290.674 153.008 293.066 155.498 296.777 155.498C299.219 155.498 300.977 154.424 301.709 152.812H308.594C307.568 157.695 303.174 160.918 296.631 160.918ZM290.674 144.463H301.953C301.953 141.24 299.707 138.945 296.484 138.945C293.164 138.945 290.796 141.411 290.674 144.463ZM313.33 160.381V133.867H320.312V138.457H320.605C321.582 135.186 324.023 133.477 327.002 133.477C327.734 133.477 328.662 133.574 329.297 133.721V140.166C328.613 139.971 327.246 139.775 326.221 139.775C322.949 139.775 320.557 142.07 320.557 145.293V160.381H313.33ZM350.391 160.381H342.48L354.736 125.029H364.16L376.367 160.381H368.506L365.869 152.227H353.076L350.391 160.381ZM354.932 146.514H364.014L359.57 132.988H359.326L354.932 146.514ZM387.451 125.029V160.381H380.225V125.029H387.451ZM13.7695 220.918C5.76172 220.918 0.78125 215.4 0.78125 207.197C0.78125 198.994 5.76172 193.525 13.7695 193.525C21.7773 193.525 26.8066 198.994 26.8066 207.197C26.8066 215.4 21.7773 220.918 13.7695 220.918ZM13.8184 215.303C17.5293 215.303 19.4336 211.836 19.4336 207.197C19.4336 202.51 17.5293 199.043 13.8184 199.043C10.0586 199.043 8.10547 202.51 8.10547 207.197C8.10547 211.836 10.0586 215.303 13.8184 215.303ZM38.5742 205.049V220.381H31.3477V193.867H38.2324V198.506H38.5254C39.7461 195.43 42.5781 193.525 46.4844 193.525C52.002 193.525 55.6641 197.285 55.6152 203.486V220.381H48.4375V204.756C48.4375 201.484 46.6309 199.531 43.6523 199.531C40.625 199.531 38.5742 201.533 38.5742 205.049ZM73.2422 220.918C65.1367 220.918 60.1562 215.645 60.1562 207.246C60.1562 199.043 65.1855 193.525 72.9492 193.525C79.9316 193.525 85.4004 197.92 85.4004 206.953V209.004H67.2852C67.2852 213.008 69.6777 215.498 73.3887 215.498C75.8301 215.498 77.5879 214.424 78.3203 212.812H85.2051C84.1797 217.695 79.7852 220.918 73.2422 220.918ZM67.2852 204.463H78.5645C78.5645 201.24 76.3184 198.945 73.0957 198.945C69.7754 198.945 67.4072 201.411 67.2852 204.463ZM141.309 197.285V202.363H135.01V224.775H128.76V180.439H135.01V197.285H141.309ZM107.568 184.688V208.76C113.257 208.687 119.36 208.149 125.781 206.855L126.416 212.031C118.994 213.545 111.768 213.936 105.225 213.936H101.367V184.688H107.568ZM181.592 183.076V187.422H145.117V183.076H160.303V180H166.553V183.076H181.592ZM163.428 188.545C173.291 188.545 178.369 190.254 178.369 194.111C178.369 197.529 174.365 199.263 166.553 199.629V201.68H183.691V206.123H143.164V201.68H160.303V199.629C152.441 199.263 148.438 197.529 148.486 194.111C148.438 190.254 153.516 188.545 163.428 188.545ZM163.428 192.5C157.373 192.5 155.127 192.939 155.127 194.111C155.127 195.283 157.373 195.771 163.428 195.771C169.385 195.771 171.777 195.283 171.777 194.111C171.777 192.939 169.385 192.5 163.428 192.5ZM178.76 207.979V218.135H154.199V220.234H179.932V224.58H147.9V214.082H172.412V212.275H147.852V207.979H178.76ZM227.051 214.814V219.941H186.377V214.814H203.516V208.125H191.064V193.184H216.211V188.301H191.016V183.32H222.363V198.066H197.314V203.047H223.389V208.125H209.717V214.814H227.051ZM281.641 204.951V209.932H264.355V224.873H258.203V209.932H241.113V204.951H281.641ZM278.027 182.783V187.666H265.088C265.698 192.012 270.605 196.382 279.736 197.48L277.49 202.363C269.678 201.313 264.087 197.969 261.426 193.379C258.691 197.969 253.149 201.313 245.41 202.363L243.115 197.48C252.1 196.382 257.056 192.012 257.764 187.666H244.775V182.783H278.027ZM324.951 202.412V207.344H308.203V215.01H302.051V207.344H284.277V202.412H324.951ZM319.727 182.393V198.75H289.355V182.393H319.727ZM295.459 187.227V193.916H313.623V187.227H295.459ZM320.459 219.111V224.092H289.062V211.152H295.264V219.111H320.459ZM373.096 202.705C373.096 214.229 365.918 220.869 356.592 220.869C347.168 220.869 340.039 214.18 340.039 202.705C340.039 191.182 347.168 184.541 356.592 184.541C365.918 184.541 373.096 191.182 373.096 202.705ZM365.625 202.705C365.625 195.137 362.061 191.035 356.592 191.035C351.123 191.035 347.51 195.137 347.51 202.705C347.51 210.273 351.123 214.375 356.592 214.375C362.061 214.375 365.625 210.273 365.625 202.705ZM378.223 220.381V193.867H385.205V198.457H385.498C386.475 195.186 388.916 193.477 391.895 193.477C392.627 193.477 393.555 193.574 394.189 193.721V200.166C393.506 199.971 392.139 199.775 391.113 199.775C387.842 199.775 385.449 202.07 385.449 205.293V220.381H378.223ZM11.6211 280.82C5.56641 280.82 0.830078 275.986 0.830078 267.148C0.830078 258.066 5.76172 253.525 11.6211 253.525C16.0645 253.525 18.1641 256.162 19.1406 258.311H19.3848V245.029H26.6113V280.381H19.4824V276.133H19.1406C18.1152 278.33 15.918 280.82 11.6211 280.82ZM13.8672 275.059C17.4805 275.059 19.5312 271.885 19.5312 267.1C19.5312 262.314 17.4805 259.287 13.8672 259.287C10.2051 259.287 8.25195 262.461 8.25195 267.1C8.25195 271.787 10.2051 275.059 13.8672 275.059ZM44.4336 280.918C36.3281 280.918 31.3477 275.645 31.3477 267.246C31.3477 259.043 36.377 253.525 44.1406 253.525C51.123 253.525 56.5918 257.92 56.5918 266.953V269.004H38.4766C38.4766 273.008 40.8691 275.498 44.5801 275.498C47.0215 275.498 48.7793 274.424 49.5117 272.812H56.3965C55.3711 277.695 50.9766 280.918 44.4336 280.918ZM38.4766 264.463H49.7559C49.7559 261.24 47.5098 258.945 44.2871 258.945C40.9668 258.945 38.5986 261.411 38.4766 264.463ZM61.1328 280.381V253.867H68.1152V258.457H68.4082C69.3848 255.186 71.8262 253.477 74.8047 253.477C75.5371 253.477 76.4648 253.574 77.0996 253.721V260.166C76.416 259.971 75.0488 259.775 74.0234 259.775C70.752 259.775 68.3594 262.07 68.3594 265.293V280.381H61.1328ZM98.1934 280.381H90.2832L102.539 245.029H111.963L124.17 280.381H116.309L113.672 272.227H100.879L98.1934 280.381ZM102.734 266.514H111.816L107.373 252.988H107.129L102.734 266.514ZM135.254 245.029V280.381H128.027V245.029H135.254ZM152.783 280.918C144.775 280.918 139.795 275.4 139.795 267.197C139.795 258.994 144.775 253.525 152.783 253.525C160.791 253.525 165.82 258.994 165.82 267.197C165.82 275.4 160.791 280.918 152.783 280.918ZM152.832 275.303C156.543 275.303 158.447 271.836 158.447 267.197C158.447 262.51 156.543 259.043 152.832 259.043C149.072 259.043 147.119 262.51 147.119 267.197C147.119 271.836 149.072 275.303 152.832 275.303ZM177.588 265.049V280.381H170.361V253.867H177.246V258.506H177.539C178.76 255.43 181.592 253.525 185.498 253.525C191.016 253.525 194.678 257.285 194.629 263.486V280.381H187.451V264.756C187.451 261.484 185.645 259.531 182.666 259.531C179.639 259.531 177.588 261.533 177.588 265.049ZM212.256 280.918C204.15 280.918 199.17 275.645 199.17 267.246C199.17 259.043 204.199 253.525 211.963 253.525C218.945 253.525 224.414 257.92 224.414 266.953V269.004H206.299C206.299 273.008 208.691 275.498 212.402 275.498C214.844 275.498 216.602 274.424 217.334 272.812H224.219C223.193 277.695 218.799 280.918 212.256 280.918ZM206.299 264.463H217.578C217.578 261.24 215.332 258.945 212.109 258.945C208.789 258.945 206.421 261.411 206.299 264.463ZM280.322 257.285V262.363H274.023V284.775H267.773V240.439H274.023V257.285H280.322ZM246.582 244.688V268.76C252.271 268.687 258.374 268.149 264.795 266.855L265.43 272.031C258.008 273.545 250.781 273.936 244.238 273.936H240.381V244.688H246.582ZM320.605 243.076V247.422H284.131V243.076H299.316V240H305.566V243.076H320.605ZM302.441 248.545C312.305 248.545 317.383 250.254 317.383 254.111C317.383 257.529 313.379 259.263 305.566 259.629V261.68H322.705V266.123H282.178V261.68H299.316V259.629C291.455 259.263 287.451 257.529 287.5 254.111C287.451 250.254 292.529 248.545 302.441 248.545ZM302.441 252.5C296.387 252.5 294.141 252.939 294.141 254.111C294.141 255.283 296.387 255.771 302.441 255.771C308.398 255.771 310.791 255.283 310.791 254.111C310.791 252.939 308.398 252.5 302.441 252.5ZM317.773 267.979V278.135H293.213V280.234H318.945V284.58H286.914V274.082H311.426V272.275H286.865V267.979H317.773ZM366.064 274.814V279.941H325.391V274.814H342.529V268.125H330.078V253.184H355.225V248.301H330.029V243.32H361.377V258.066H336.328V263.047H362.402V268.125H348.73V274.814H366.064ZM40.8691 324.951V329.932H23.584V344.873H17.4316V329.932H0.341797V324.951H40.8691ZM37.2559 302.783V307.666H24.3164C24.9268 312.012 29.834 316.382 38.9648 317.48L36.7188 322.363C28.9062 321.313 23.3154 317.969 20.6543 313.379C17.9199 317.969 12.3779 321.313 4.63867 322.363L2.34375 317.48C11.3281 316.382 16.2842 312.012 16.9922 307.666H4.00391V302.783H37.2559ZM84.1797 322.412V327.344H67.4316V335.01H61.2793V327.344H43.5059V322.412H84.1797ZM78.9551 302.393V318.75H48.584V302.393H78.9551ZM54.6875 307.227V313.916H72.8516V307.227H54.6875ZM79.6875 339.111V344.092H48.291V331.152H54.4922V339.111H79.6875ZM132.324 322.705C132.324 334.229 125.146 340.869 115.82 340.869C106.396 340.869 99.2676 334.18 99.2676 322.705C99.2676 311.182 106.396 304.541 115.82 304.541C125.146 304.541 132.324 311.182 132.324 322.705ZM124.854 322.705C124.854 315.137 121.289 311.035 115.82 311.035C110.352 311.035 106.738 315.137 106.738 322.705C106.738 330.273 110.352 334.375 115.82 334.375C121.289 334.375 124.854 330.273 124.854 322.705ZM137.451 340.381V313.867H144.434V318.457H144.727C145.703 315.186 148.145 313.477 151.123 313.477C151.855 313.477 152.783 313.574 153.418 313.721V320.166C152.734 319.971 151.367 319.775 150.342 319.775C147.07 319.775 144.678 322.07 144.678 325.293V340.381H137.451ZM165.869 340.82C159.814 340.82 155.078 335.986 155.078 327.148C155.078 318.066 160.01 313.525 165.869 313.525C170.312 313.525 172.412 316.162 173.389 318.311H173.633V305.029H180.859V340.381H173.73V336.133H173.389C172.363 338.33 170.166 340.82 165.869 340.82ZM168.115 335.059C171.729 335.059 173.779 331.885 173.779 327.1C173.779 322.314 171.729 319.287 168.115 319.287C164.453 319.287 162.5 322.461 162.5 327.1C162.5 331.787 164.453 335.059 168.115 335.059ZM198.682 340.918C190.576 340.918 185.596 335.645 185.596 327.246C185.596 319.043 190.625 313.525 198.389 313.525C205.371 313.525 210.84 317.92 210.84 326.953V329.004H192.725C192.725 333.008 195.117 335.498 198.828 335.498C201.27 335.498 203.027 334.424 203.76 332.812H210.645C209.619 337.695 205.225 340.918 198.682 340.918ZM192.725 324.463H204.004C204.004 321.24 201.758 318.945 198.535 318.945C195.215 318.945 192.847 321.411 192.725 324.463ZM215.381 340.381V313.867H222.363V318.457H222.656C223.633 315.186 226.074 313.477 229.053 313.477C229.785 313.477 230.713 313.574 231.348 313.721V320.166C230.664 319.971 229.297 319.775 228.271 319.775C225 319.775 222.607 322.07 222.607 325.293V340.381H215.381ZM252.441 340.381H244.531L256.787 305.029H266.211L278.418 340.381H270.557L267.92 332.227H255.127L252.441 340.381ZM256.982 326.514H266.064L261.621 312.988H261.377L256.982 326.514ZM289.502 305.029V340.381H282.275V305.029H289.502ZM307.031 340.918C299.023 340.918 294.043 335.4 294.043 327.197C294.043 318.994 299.023 313.525 307.031 313.525C315.039 313.525 320.068 318.994 320.068 327.197C320.068 335.4 315.039 340.918 307.031 340.918ZM307.08 335.303C310.791 335.303 312.695 331.836 312.695 327.197C312.695 322.51 310.791 319.043 307.08 319.043C303.32 319.043 301.367 322.51 301.367 327.197C301.367 331.836 303.32 335.303 307.08 335.303ZM331.836 325.049V340.381H324.609V313.867H331.494V318.506H331.787C333.008 315.43 335.84 313.525 339.746 313.525C345.264 313.525 348.926 317.285 348.877 323.486V340.381H341.699V324.756C341.699 321.484 339.893 319.531 336.914 319.531C333.887 319.531 331.836 321.533 331.836 325.049ZM366.504 340.918C358.398 340.918 353.418 335.645 353.418 327.246C353.418 319.043 358.447 313.525 366.211 313.525C373.193 313.525 378.662 317.92 378.662 326.953V329.004H360.547C360.547 333.008 362.939 335.498 366.65 335.498C369.092 335.498 370.85 334.424 371.582 332.812H378.467C377.441 337.695 373.047 340.918 366.504 340.918ZM360.547 324.463H371.826C371.826 321.24 369.58 318.945 366.357 318.945C363.037 318.945 360.669 321.411 360.547 324.463ZM41.6992 377.285V382.363H35.4004V404.775H29.1504V360.439H35.4004V377.285H41.6992ZM7.95898 364.688V388.76C13.6475 388.687 19.751 388.149 26.1719 386.855L26.8066 392.031C19.3848 393.545 12.1582 393.936 5.61523 393.936H1.75781V364.688H7.95898ZM81.9824 363.076V367.422H45.5078V363.076H60.6934V360H66.9434V363.076H81.9824ZM63.8184 368.545C73.6816 368.545 78.7598 370.254 78.7598 374.111C78.7598 377.529 74.7559 379.263 66.9434 379.629V381.68H84.082V386.123H43.5547V381.68H60.6934V379.629C52.832 379.263 48.8281 377.529 48.877 374.111C48.8281 370.254 53.9062 368.545 63.8184 368.545ZM63.8184 372.5C57.7637 372.5 55.5176 372.939 55.5176 374.111C55.5176 375.283 57.7637 375.771 63.8184 375.771C69.7754 375.771 72.168 375.283 72.168 374.111C72.168 372.939 69.7754 372.5 63.8184 372.5ZM79.1504 387.979V398.135H54.5898V400.234H80.3223V404.58H48.291V394.082H72.8027V392.275H48.2422V387.979H79.1504ZM127.441 394.814V399.941H86.7676V394.814H103.906V388.125H91.4551V373.184H116.602V368.301H91.4062V363.32H122.754V378.066H97.7051V383.047H123.779V388.125H110.107V394.814H127.441ZM182.031 384.951V389.932H164.746V404.873H158.594V389.932H141.504V384.951H182.031ZM178.418 362.783V367.666H165.479C166.089 372.012 170.996 376.382 180.127 377.48L177.881 382.363C170.068 381.313 164.478 377.969 161.816 373.379C159.082 377.969 153.54 381.313 145.801 382.363L143.506 377.48C152.49 376.382 157.446 372.012 158.154 367.666H145.166V362.783H178.418ZM225.342 382.412V387.344H208.594V395.01H202.441V387.344H184.668V382.412H225.342ZM220.117 362.393V378.75H189.746V362.393H220.117ZM195.85 367.227V373.916H214.014V367.227H195.85ZM220.85 399.111V404.092H189.453V391.152H195.654V399.111H220.85ZM273.486 382.705C273.486 394.229 266.309 400.869 256.982 400.869C247.559 400.869 240.43 394.18 240.43 382.705C240.43 371.182 247.559 364.541 256.982 364.541C266.309 364.541 273.486 371.182 273.486 382.705ZM266.016 382.705C266.016 375.137 262.451 371.035 256.982 371.035C251.514 371.035 247.9 375.137 247.9 382.705C247.9 390.273 251.514 394.375 256.982 394.375C262.451 394.375 266.016 390.273 266.016 382.705ZM278.613 400.381V373.867H285.596V378.457H285.889C286.865 375.186 289.307 373.477 292.285 373.477C293.018 373.477 293.945 373.574 294.58 373.721V380.166C293.896 379.971 292.529 379.775 291.504 379.775C288.232 379.775 285.84 382.07 285.84 385.293V400.381H278.613ZM307.031 400.82C300.977 400.82 296.24 395.986 296.24 387.148C296.24 378.066 301.172 373.525 307.031 373.525C311.475 373.525 313.574 376.162 314.551 378.311H314.795V365.029H322.021V400.381H314.893V396.133H314.551C313.525 398.33 311.328 400.82 307.031 400.82ZM309.277 395.059C312.891 395.059 314.941 391.885 314.941 387.1C314.941 382.314 312.891 379.287 309.277 379.287C305.615 379.287 303.662 382.461 303.662 387.1C303.662 391.787 305.615 395.059 309.277 395.059ZM339.844 400.918C331.738 400.918 326.758 395.645 326.758 387.246C326.758 379.043 331.787 373.525 339.551 373.525C346.533 373.525 352.002 377.92 352.002 386.953V389.004H333.887C333.887 393.008 336.279 395.498 339.99 395.498C342.432 395.498 344.189 394.424 344.922 392.812H351.807C350.781 397.695 346.387 400.918 339.844 400.918ZM333.887 384.463H345.166C345.166 381.24 342.92 378.945 339.697 378.945C336.377 378.945 334.009 381.411 333.887 384.463ZM356.543 400.381V373.867H363.525V378.457H363.818C364.795 375.186 367.236 373.477 370.215 373.477C370.947 373.477 371.875 373.574 372.51 373.721V380.166C371.826 379.971 370.459 379.775 369.434 379.775C366.162 379.775 363.77 382.07 363.77 385.293V400.381H356.543ZM7.91016 460.381H0L12.2559 425.029H21.6797L33.8867 460.381H26.0254L23.3887 452.227H10.5957L7.91016 460.381ZM12.4512 446.514H21.5332L17.0898 432.988H16.8457L12.4512 446.514ZM44.9707 425.029V460.381H37.7441V425.029H44.9707ZM62.5 460.918C54.4922 460.918 49.5117 455.4 49.5117 447.197C49.5117 438.994 54.4922 433.525 62.5 433.525C70.5078 433.525 75.5371 438.994 75.5371 447.197C75.5371 455.4 70.5078 460.918 62.5 460.918ZM62.5488 455.303C66.2598 455.303 68.1641 451.836 68.1641 447.197C68.1641 442.51 66.2598 439.043 62.5488 439.043C58.7891 439.043 56.8359 442.51 56.8359 447.197C56.8359 451.836 58.7891 455.303 62.5488 455.303ZM87.3047 445.049V460.381H80.0781V433.867H86.9629V438.506H87.2559C88.4766 435.43 91.3086 433.525 95.2148 433.525C100.732 433.525 104.395 437.285 104.346 443.486V460.381H97.168V444.756C97.168 441.484 95.3613 439.531 92.3828 439.531C89.3555 439.531 87.3047 441.533 87.3047 445.049ZM121.973 460.918C113.867 460.918 108.887 455.645 108.887 447.246C108.887 439.043 113.916 433.525 121.68 433.525C128.662 433.525 134.131 437.92 134.131 446.953V449.004H116.016C116.016 453.008 118.408 455.498 122.119 455.498C124.561 455.498 126.318 454.424 127.051 452.812H133.936C132.91 457.695 128.516 460.918 121.973 460.918ZM116.016 444.463H127.295C127.295 441.24 125.049 438.945 121.826 438.945C118.506 438.945 116.138 441.411 116.016 444.463ZM190.039 437.285V442.363H183.74V464.775H177.49V420.439H183.74V437.285H190.039ZM156.299 424.688V448.76C161.987 448.687 168.091 448.149 174.512 446.855L175.146 452.031C167.725 453.545 160.498 453.936 153.955 453.936H150.098V424.688H156.299ZM230.322 423.076V427.422H193.848V423.076H209.033V420H215.283V423.076H230.322ZM212.158 428.545C222.021 428.545 227.1 430.254 227.1 434.111C227.1 437.529 223.096 439.263 215.283 439.629V441.68H232.422V446.123H191.895V441.68H209.033V439.629C201.172 439.263 197.168 437.529 197.217 434.111C197.168 430.254 202.246 428.545 212.158 428.545ZM212.158 432.5C206.104 432.5 203.857 432.939 203.857 434.111C203.857 435.283 206.104 435.771 212.158 435.771C218.115 435.771 220.508 435.283 220.508 434.111C220.508 432.939 218.115 432.5 212.158 432.5ZM227.49 447.979V458.135H202.93V460.234H228.662V464.58H196.631V454.082H221.143V452.275H196.582V447.979H227.49ZM275.781 454.814V459.941H235.107V454.814H252.246V448.125H239.795V433.184H264.941V428.301H239.746V423.32H271.094V438.066H246.045V443.047H272.119V448.125H258.447V454.814H275.781ZM330.371 444.951V449.932H313.086V464.873H306.934V449.932H289.844V444.951H330.371ZM326.758 422.783V427.666H313.818C314.429 432.012 319.336 436.382 328.467 437.48L326.221 442.363C318.408 441.313 312.817 437.969 310.156 433.379C307.422 437.969 301.88 441.313 294.141 442.363L291.846 437.48C300.83 436.382 305.786 432.012 306.494 427.666H293.506V422.783H326.758ZM373.682 442.412V447.344H356.934V455.01H350.781V447.344H333.008V442.412H373.682ZM368.457 422.393V438.75H338.086V422.393H368.457ZM344.189 427.227V433.916H362.354V427.227H344.189ZM369.189 459.111V464.092H337.793V451.152H343.994V459.111H369.189ZM34.375 502.705C34.375 514.229 27.1973 520.869 17.8711 520.869C8.44727 520.869 1.31836 514.18 1.31836 502.705C1.31836 491.182 8.44727 484.541 17.8711 484.541C27.1973 484.541 34.375 491.182 34.375 502.705ZM26.9043 502.705C26.9043 495.137 23.3398 491.035 17.8711 491.035C12.4023 491.035 8.78906 495.137 8.78906 502.705C8.78906 510.273 12.4023 514.375 17.8711 514.375C23.3398 514.375 26.9043 510.273 26.9043 502.705ZM39.502 520.381V493.867H46.4844V498.457H46.7773C47.7539 495.186 50.1953 493.477 53.1738 493.477C53.9062 493.477 54.834 493.574 55.4688 493.721V500.166C54.7852 499.971 53.418 499.775 52.3926 499.775C49.1211 499.775 46.7285 502.07 46.7285 505.293V520.381H39.502ZM67.9199 520.82C61.8652 520.82 57.1289 515.986 57.1289 507.148C57.1289 498.066 62.0605 493.525 67.9199 493.525C72.3633 493.525 74.4629 496.162 75.4395 498.311H75.6836V485.029H82.9102V520.381H75.7812V516.133H75.4395C74.4141 518.33 72.2168 520.82 67.9199 520.82ZM70.166 515.059C73.7793 515.059 75.8301 511.885 75.8301 507.1C75.8301 502.314 73.7793 499.287 70.166 499.287C66.5039 499.287 64.5508 502.461 64.5508 507.1C64.5508 511.787 66.5039 515.059 70.166 515.059ZM100.732 520.918C92.627 520.918 87.6465 515.645 87.6465 507.246C87.6465 499.043 92.6758 493.525 100.439 493.525C107.422 493.525 112.891 497.92 112.891 506.953V509.004H94.7754C94.7754 513.008 97.168 515.498 100.879 515.498C103.32 515.498 105.078 514.424 105.811 512.812H112.695C111.67 517.695 107.275 520.918 100.732 520.918ZM94.7754 504.463H106.055C106.055 501.24 103.809 498.945 100.586 498.945C97.2656 498.945 94.8975 501.411 94.7754 504.463ZM117.432 520.381V493.867H124.414V498.457H124.707C125.684 495.186 128.125 493.477 131.104 493.477C131.836 493.477 132.764 493.574 133.398 493.721V500.166C132.715 499.971 131.348 499.775 130.322 499.775C127.051 499.775 124.658 502.07 124.658 505.293V520.381H117.432ZM154.492 520.381H146.582L158.838 485.029H168.262L180.469 520.381H172.607L169.971 512.227H157.178L154.492 520.381ZM159.033 506.514H168.115L163.672 492.988H163.428L159.033 506.514ZM191.553 485.029V520.381H184.326V485.029H191.553ZM209.082 520.918C201.074 520.918 196.094 515.4 196.094 507.197C196.094 498.994 201.074 493.525 209.082 493.525C217.09 493.525 222.119 498.994 222.119 507.197C222.119 515.4 217.09 520.918 209.082 520.918ZM209.131 515.303C212.842 515.303 214.746 511.836 214.746 507.197C214.746 502.51 212.842 499.043 209.131 499.043C205.371 499.043 203.418 502.51 203.418 507.197C203.418 511.836 205.371 515.303 209.131 515.303ZM233.887 505.049V520.381H226.66V493.867H233.545V498.506H233.838C235.059 495.43 237.891 493.525 241.797 493.525C247.314 493.525 250.977 497.285 250.928 503.486V520.381H243.75V504.756C243.75 501.484 241.943 499.531 238.965 499.531C235.938 499.531 233.887 501.533 233.887 505.049ZM268.555 520.918C260.449 520.918 255.469 515.645 255.469 507.246C255.469 499.043 260.498 493.525 268.262 493.525C275.244 493.525 280.713 497.92 280.713 506.953V509.004H262.598C262.598 513.008 264.99 515.498 268.701 515.498C271.143 515.498 272.9 514.424 273.633 512.812H280.518C279.492 517.695 275.098 520.918 268.555 520.918ZM262.598 504.463H273.877C273.877 501.24 271.631 498.945 268.408 498.945C265.088 498.945 262.72 501.411 262.598 504.463ZM336.621 497.285V502.363H330.322V524.775H324.072V480.439H330.322V497.285H336.621ZM302.881 484.688V508.76C308.569 508.687 314.673 508.149 321.094 506.855L321.729 512.031C314.307 513.545 307.08 513.936 300.537 513.936H296.68V484.688H302.881ZM376.904 483.076V487.422H340.43V483.076H355.615V480H361.865V483.076H376.904ZM358.74 488.545C368.604 488.545 373.682 490.254 373.682 494.111C373.682 497.529 369.678 499.263 361.865 499.629V501.68H379.004V506.123H338.477V501.68H355.615V499.629C347.754 499.263 343.75 497.529 343.799 494.111C343.75 490.254 348.828 488.545 358.74 488.545ZM358.74 492.5C352.686 492.5 350.439 492.939 350.439 494.111C350.439 495.283 352.686 495.771 358.74 495.771C364.697 495.771 367.09 495.283 367.09 494.111C367.09 492.939 364.697 492.5 358.74 492.5ZM374.072 507.979V518.135H349.512V520.234H375.244V524.58H343.213V514.082H367.725V512.275H343.164V507.979H374.072ZM41.0156 574.814V579.941H0.341797V574.814H17.4805V568.125H5.0293V553.184H30.1758V548.301H4.98047V543.32H36.3281V558.066H11.2793V563.047H37.3535V568.125H23.6816V574.814H41.0156ZM95.6055 564.951V569.932H78.3203V584.873H72.168V569.932H55.0781V564.951H95.6055ZM91.9922 542.783V547.666H79.0527C79.6631 552.012 84.5703 556.382 93.7012 557.48L91.4551 562.363C83.6426 561.313 78.0518 557.969 75.3906 553.379C72.6562 557.969 67.1143 561.313 59.375 562.363L57.0801 557.48C66.0645 556.382 71.0205 552.012 71.7285 547.666H58.7402V542.783H91.9922ZM138.916 562.412V567.344H122.168V575.01H116.016V567.344H98.2422V562.412H138.916ZM133.691 542.393V558.75H103.32V542.393H133.691ZM109.424 547.227V553.916H127.588V547.227H109.424ZM134.424 579.111V584.092H103.027V571.152H109.229V579.111H134.424ZM187.061 562.705C187.061 574.229 179.883 580.869 170.557 580.869C161.133 580.869 154.004 574.18 154.004 562.705C154.004 551.182 161.133 544.541 170.557 544.541C179.883 544.541 187.061 551.182 187.061 562.705ZM179.59 562.705C179.59 555.137 176.025 551.035 170.557 551.035C165.088 551.035 161.475 555.137 161.475 562.705C161.475 570.273 165.088 574.375 170.557 574.375C176.025 574.375 179.59 570.273 179.59 562.705ZM192.188 580.381V553.867H199.17V558.457H199.463C200.439 555.186 202.881 553.477 205.859 553.477C206.592 553.477 207.52 553.574 208.154 553.721V560.166C207.471 559.971 206.104 559.775 205.078 559.775C201.807 559.775 199.414 562.07 199.414 565.293V580.381H192.188ZM220.605 580.82C214.551 580.82 209.814 575.986 209.814 567.148C209.814 558.066 214.746 553.525 220.605 553.525C225.049 553.525 227.148 556.162 228.125 558.311H228.369V545.029H235.596V580.381H228.467V576.133H228.125C227.1 578.33 224.902 580.82 220.605 580.82ZM222.852 575.059C226.465 575.059 228.516 571.885 228.516 567.1C228.516 562.314 226.465 559.287 222.852 559.287C219.189 559.287 217.236 562.461 217.236 567.1C217.236 571.787 219.189 575.059 222.852 575.059ZM253.418 580.918C245.312 580.918 240.332 575.645 240.332 567.246C240.332 559.043 245.361 553.525 253.125 553.525C260.107 553.525 265.576 557.92 265.576 566.953V569.004H247.461C247.461 573.008 249.854 575.498 253.564 575.498C256.006 575.498 257.764 574.424 258.496 572.812H265.381C264.355 577.695 259.961 580.918 253.418 580.918ZM247.461 564.463H258.74C258.74 561.24 256.494 558.945 253.271 558.945C249.951 558.945 247.583 561.411 247.461 564.463ZM270.117 580.381V553.867H277.1V558.457H277.393C278.369 555.186 280.811 553.477 283.789 553.477C284.521 553.477 285.449 553.574 286.084 553.721V560.166C285.4 559.971 284.033 559.775 283.008 559.775C279.736 559.775 277.344 562.07 277.344 565.293V580.381H270.117ZM307.178 580.381H299.268L311.523 545.029H320.947L333.154 580.381H325.293L322.656 572.227H309.863L307.178 580.381ZM311.719 566.514H320.801L316.357 552.988H316.113L311.719 566.514ZM344.238 545.029V580.381H337.012V545.029H344.238ZM361.768 580.918C353.76 580.918 348.779 575.4 348.779 567.197C348.779 558.994 353.76 553.525 361.768 553.525C369.775 553.525 374.805 558.994 374.805 567.197C374.805 575.4 369.775 580.918 361.768 580.918ZM361.816 575.303C365.527 575.303 367.432 571.836 367.432 567.197C367.432 562.51 365.527 559.043 361.816 559.043C358.057 559.043 356.104 562.51 356.104 567.197C356.104 571.836 358.057 575.303 361.816 575.303ZM9.08203 625.049V640.381H1.85547V613.867H8.74023V618.506H9.0332C10.2539 615.43 13.0859 613.525 16.9922 613.525C22.5098 613.525 26.1719 617.285 26.123 623.486V640.381H18.9453V624.756C18.9453 621.484 17.1387 619.531 14.1602 619.531C11.1328 619.531 9.08203 621.533 9.08203 625.049ZM43.75 640.918C35.6445 640.918 30.6641 635.645 30.6641 627.246C30.6641 619.043 35.6934 613.525 43.457 613.525C50.4395 613.525 55.9082 617.92 55.9082 626.953V629.004H37.793C37.793 633.008 40.1855 635.498 43.8965 635.498C46.3379 635.498 48.0957 634.424 48.8281 632.812H55.7129C54.6875 637.695 50.293 640.918 43.75 640.918ZM37.793 624.463H49.0723C49.0723 621.24 46.8262 618.945 43.6035 618.945C40.2832 618.945 37.915 621.411 37.793 624.463ZM111.816 617.285V622.363H105.518V644.775H99.2676V600.439H105.518V617.285H111.816ZM78.0762 604.688V628.76C83.7646 628.687 89.8682 628.149 96.2891 626.855L96.9238 632.031C89.502 633.545 82.2754 633.936 75.7324 633.936H71.875V604.688H78.0762ZM152.1 603.076V607.422H115.625V603.076H130.811V600H137.061V603.076H152.1ZM133.936 608.545C143.799 608.545 148.877 610.254 148.877 614.111C148.877 617.529 144.873 619.263 137.061 619.629V621.68H154.199V626.123H113.672V621.68H130.811V619.629C122.949 619.263 118.945 617.529 118.994 614.111C118.945 610.254 124.023 608.545 133.936 608.545ZM133.936 612.5C127.881 612.5 125.635 612.939 125.635 614.111C125.635 615.283 127.881 615.771 133.936 615.771C139.893 615.771 142.285 615.283 142.285 614.111C142.285 612.939 139.893 612.5 133.936 612.5ZM149.268 627.979V638.135H124.707V640.234H150.439V644.58H118.408V634.082H142.92V632.275H118.359V627.979H149.268ZM197.559 634.814V639.941H156.885V634.814H174.023V628.125H161.572V613.184H186.719V608.301H161.523V603.32H192.871V618.066H167.822V623.047H193.896V628.125H180.225V634.814H197.559ZM252.148 624.951V629.932H234.863V644.873H228.711V629.932H211.621V624.951H252.148ZM248.535 602.783V607.666H235.596C236.206 612.012 241.113 616.382 250.244 617.48L247.998 622.363C240.186 621.313 234.595 617.969 231.934 613.379C229.199 617.969 223.657 621.313 215.918 622.363L213.623 617.48C222.607 616.382 227.563 612.012 228.271 607.666H215.283V602.783H248.535ZM295.459 622.412V627.344H278.711V635.01H272.559V627.344H254.785V622.412H295.459ZM290.234 602.393V618.75H259.863V602.393H290.234ZM265.967 607.227V613.916H284.131V607.227H265.967ZM290.967 639.111V644.092H259.57V631.152H265.771V639.111H290.967ZM343.604 622.705C343.604 634.229 336.426 640.869 327.1 640.869C317.676 640.869 310.547 634.18 310.547 622.705C310.547 611.182 317.676 604.541 327.1 604.541C336.426 604.541 343.604 611.182 343.604 622.705ZM336.133 622.705C336.133 615.137 332.568 611.035 327.1 611.035C321.631 611.035 318.018 615.137 318.018 622.705C318.018 630.273 321.631 634.375 327.1 634.375C332.568 634.375 336.133 630.273 336.133 622.705ZM348.73 640.381V613.867H355.713V618.457H356.006C356.982 615.186 359.424 613.477 362.402 613.477C363.135 613.477 364.062 613.574 364.697 613.721V620.166C364.014 619.971 362.646 619.775 361.621 619.775C358.35 619.775 355.957 622.07 355.957 625.293V640.381H348.73ZM377.148 640.82C371.094 640.82 366.357 635.986 366.357 627.148C366.357 618.066 371.289 613.525 377.148 613.525C381.592 613.525 383.691 616.162 384.668 618.311H384.912V605.029H392.139V640.381H385.01V636.133H384.668C383.643 638.33 381.445 640.82 377.148 640.82ZM379.395 635.059C383.008 635.059 385.059 631.885 385.059 627.1C385.059 622.314 383.008 619.287 379.395 619.287C375.732 619.287 373.779 622.461 373.779 627.1C373.779 631.787 375.732 635.059 379.395 635.059ZM13.8672 700.918C5.76172 700.918 0.78125 695.645 0.78125 687.246C0.78125 679.043 5.81055 673.525 13.5742 673.525C20.5566 673.525 26.0254 677.92 26.0254 686.953V689.004H7.91016C7.91016 693.008 10.3027 695.498 14.0137 695.498C16.4551 695.498 18.2129 694.424 18.9453 692.812H25.8301C24.8047 697.695 20.4102 700.918 13.8672 700.918ZM7.91016 684.463H19.1895C19.1895 681.24 16.9434 678.945 13.7207 678.945C10.4004 678.945 8.03223 681.411 7.91016 684.463ZM30.5664 700.381V673.867H37.5488V678.457H37.8418C38.8184 675.186 41.2598 673.477 44.2383 673.477C44.9707 673.477 45.8984 673.574 46.5332 673.721V680.166C45.8496 679.971 44.4824 679.775 43.457 679.775C40.1855 679.775 37.793 682.07 37.793 685.293V700.381H30.5664ZM67.627 700.381H59.7168L71.9727 665.029H81.3965L93.6035 700.381H85.7422L83.1055 692.227H70.3125L67.627 700.381ZM72.168 686.514H81.25L76.8066 672.988H76.5625L72.168 686.514ZM104.688 665.029V700.381H97.4609V665.029H104.688ZM122.217 700.918C114.209 700.918 109.229 695.4 109.229 687.197C109.229 678.994 114.209 673.525 122.217 673.525C130.225 673.525 135.254 678.994 135.254 687.197C135.254 695.4 130.225 700.918 122.217 700.918ZM122.266 695.303C125.977 695.303 127.881 691.836 127.881 687.197C127.881 682.51 125.977 679.043 122.266 679.043C118.506 679.043 116.553 682.51 116.553 687.197C116.553 691.836 118.506 695.303 122.266 695.303ZM147.021 685.049V700.381H139.795V673.867H146.68V678.506H146.973C148.193 675.43 151.025 673.525 154.932 673.525C160.449 673.525 164.111 677.285 164.062 683.486V700.381H156.885V684.756C156.885 681.484 155.078 679.531 152.1 679.531C149.072 679.531 147.021 681.533 147.021 685.049ZM181.689 700.918C173.584 700.918 168.604 695.645 168.604 687.246C168.604 679.043 173.633 673.525 181.396 673.525C188.379 673.525 193.848 677.92 193.848 686.953V689.004H175.732C175.732 693.008 178.125 695.498 181.836 695.498C184.277 695.498 186.035 694.424 186.768 692.812H193.652C192.627 697.695 188.232 700.918 181.689 700.918ZM175.732 684.463H187.012C187.012 681.24 184.766 678.945 181.543 678.945C178.223 678.945 175.854 681.411 175.732 684.463ZM249.756 677.285V682.363H243.457V704.775H237.207V660.439H243.457V677.285H249.756ZM216.016 664.688V688.76C221.704 688.687 227.808 688.149 234.229 686.855L234.863 692.031C227.441 693.545 220.215 693.936 213.672 693.936H209.814V664.688H216.016ZM290.039 663.076V667.422H253.564V663.076H268.75V660H275V663.076H290.039ZM271.875 668.545C281.738 668.545 286.816 670.254 286.816 674.111C286.816 677.529 282.812 679.263 275 679.629V681.68H292.139V686.123H251.611V681.68H268.75V679.629C260.889 679.263 256.885 677.529 256.934 674.111C256.885 670.254 261.963 668.545 271.875 668.545ZM271.875 672.5C265.82 672.5 263.574 672.939 263.574 674.111C263.574 675.283 265.82 675.771 271.875 675.771C277.832 675.771 280.225 675.283 280.225 674.111C280.225 672.939 277.832 672.5 271.875 672.5ZM287.207 687.979V698.135H262.646V700.234H288.379V704.58H256.348V694.082H280.859V692.275H256.299V687.979H287.207ZM335.498 694.814V699.941H294.824V694.814H311.963V688.125H299.512V673.184H324.658V668.301H299.463V663.32H330.811V678.066H305.762V683.047H331.836V688.125H318.164V694.814H335.498ZM390.088 684.951V689.932H372.803V704.873H366.65V689.932H349.561V684.951H390.088ZM386.475 662.783V667.666H373.535C374.146 672.012 379.053 676.382 388.184 677.48L385.938 682.363C378.125 681.313 372.534 677.969 369.873 673.379C367.139 677.969 361.597 681.313 353.857 682.363L351.562 677.48C360.547 676.382 365.503 672.012 366.211 667.666H353.223V662.783H386.475ZM40.9668 742.412V747.344H24.2188V755.01H18.0664V747.344H0.292969V742.412H40.9668ZM35.7422 722.393V738.75H5.37109V722.393H35.7422ZM11.4746 727.227V733.916H29.6387V727.227H11.4746ZM36.4746 759.111V764.092H5.07812V751.152H11.2793V759.111H36.4746ZM89.1113 742.705C89.1113 754.229 81.9336 760.869 72.6074 760.869C63.1836 760.869 56.0547 754.18 56.0547 742.705C56.0547 731.182 63.1836 724.541 72.6074 724.541C81.9336 724.541 89.1113 731.182 89.1113 742.705ZM81.6406 742.705C81.6406 735.137 78.0762 731.035 72.6074 731.035C67.1387 731.035 63.5254 735.137 63.5254 742.705C63.5254 750.273 67.1387 754.375 72.6074 754.375C78.0762 754.375 81.6406 750.273 81.6406 742.705ZM94.2383 760.381V733.867H101.221V738.457H101.514C102.49 735.186 104.932 733.477 107.91 733.477C108.643 733.477 109.57 733.574 110.205 733.721V740.166C109.521 739.971 108.154 739.775 107.129 739.775C103.857 739.775 101.465 742.07 101.465 745.293V760.381H94.2383ZM122.656 760.82C116.602 760.82 111.865 755.986 111.865 747.148C111.865 738.066 116.797 733.525 122.656 733.525C127.1 733.525 129.199 736.162 130.176 738.311H130.42V725.029H137.646V760.381H130.518V756.133H130.176C129.15 758.33 126.953 760.82 122.656 760.82ZM124.902 755.059C128.516 755.059 130.566 751.885 130.566 747.1C130.566 742.314 128.516 739.287 124.902 739.287C121.24 739.287 119.287 742.461 119.287 747.1C119.287 751.787 121.24 755.059 124.902 755.059ZM155.469 760.918C147.363 760.918 142.383 755.645 142.383 747.246C142.383 739.043 147.412 733.525 155.176 733.525C162.158 733.525 167.627 737.92 167.627 746.953V749.004H149.512C149.512 753.008 151.904 755.498 155.615 755.498C158.057 755.498 159.814 754.424 160.547 752.812H167.432C166.406 757.695 162.012 760.918 155.469 760.918ZM149.512 744.463H160.791C160.791 741.24 158.545 738.945 155.322 738.945C152.002 738.945 149.634 741.411 149.512 744.463ZM172.168 760.381V733.867H179.15V738.457H179.443C180.42 735.186 182.861 733.477 185.84 733.477C186.572 733.477 187.5 733.574 188.135 733.721V740.166C187.451 739.971 186.084 739.775 185.059 739.775C181.787 739.775 179.395 742.07 179.395 745.293V760.381H172.168ZM209.229 760.381H201.318L213.574 725.029H222.998L235.205 760.381H227.344L224.707 752.227H211.914L209.229 760.381ZM213.77 746.514H222.852L218.408 732.988H218.164L213.77 746.514ZM246.289 725.029V760.381H239.062V725.029H246.289ZM263.818 760.918C255.811 760.918 250.83 755.4 250.83 747.197C250.83 738.994 255.811 733.525 263.818 733.525C271.826 733.525 276.855 738.994 276.855 747.197C276.855 755.4 271.826 760.918 263.818 760.918ZM263.867 755.303C267.578 755.303 269.482 751.836 269.482 747.197C269.482 742.51 267.578 739.043 263.867 739.043C260.107 739.043 258.154 742.51 258.154 747.197C258.154 751.836 260.107 755.303 263.867 755.303ZM288.623 745.049V760.381H281.396V733.867H288.281V738.506H288.574C289.795 735.43 292.627 733.525 296.533 733.525C302.051 733.525 305.713 737.285 305.664 743.486V760.381H298.486V744.756C298.486 741.484 296.68 739.531 293.701 739.531C290.674 739.531 288.623 741.533 288.623 745.049ZM323.291 760.918C315.186 760.918 310.205 755.645 310.205 747.246C310.205 739.043 315.234 733.525 322.998 733.525C329.98 733.525 335.449 737.92 335.449 746.953V749.004H317.334C317.334 753.008 319.727 755.498 323.438 755.498C325.879 755.498 327.637 754.424 328.369 752.812H335.254C334.229 757.695 329.834 760.918 323.291 760.918ZM317.334 744.463H328.613C328.613 741.24 326.367 738.945 323.145 738.945C319.824 738.945 317.456 741.411 317.334 744.463ZM391.357 737.285V742.363H385.059V764.775H378.809V720.439H385.059V737.285H391.357ZM357.617 724.688V748.76C363.306 748.687 369.409 748.149 375.83 746.855L376.465 752.031C369.043 753.545 361.816 753.936 355.273 753.936H351.416V724.688H357.617ZM38.7695 783.076V787.422H2.29492V783.076H17.4805V780H23.7305V783.076H38.7695ZM20.6055 788.545C30.4688 788.545 35.5469 790.254 35.5469 794.111C35.5469 797.529 31.543 799.263 23.7305 799.629V801.68H40.8691V806.123H0.341797V801.68H17.4805V799.629C9.61914 799.263 5.61523 797.529 5.66406 794.111C5.61523 790.254 10.6934 788.545 20.6055 788.545ZM20.6055 792.5C14.5508 792.5 12.3047 792.939 12.3047 794.111C12.3047 795.283 14.5508 795.771 20.6055 795.771C26.5625 795.771 28.9551 795.283 28.9551 794.111C28.9551 792.939 26.5625 792.5 20.6055 792.5ZM35.9375 807.979V818.135H11.377V820.234H37.1094V824.58H5.07812V814.082H29.5898V812.275H5.0293V807.979H35.9375ZM84.2285 814.814V819.941H43.5547V814.814H60.6934V808.125H48.2422V793.184H73.3887V788.301H48.1934V783.32H79.541V798.066H54.4922V803.047H80.5664V808.125H66.8945V814.814H84.2285ZM138.818 804.951V809.932H121.533V824.873H115.381V809.932H98.291V804.951H138.818ZM135.205 782.783V787.666H122.266C122.876 792.012 127.783 796.382 136.914 797.48L134.668 802.363C126.855 801.313 121.265 797.969 118.604 793.379C115.869 797.969 110.327 801.313 102.588 802.363L100.293 797.48C109.277 796.382 114.233 792.012 114.941 787.666H101.953V782.783H135.205ZM182.129 802.412V807.344H165.381V815.01H159.229V807.344H141.455V802.412H182.129ZM176.904 782.393V798.75H146.533V782.393H176.904ZM152.637 787.227V793.916H170.801V787.227H152.637ZM177.637 819.111V824.092H146.24V811.152H152.441V819.111H177.637ZM230.273 802.705C230.273 814.229 223.096 820.869 213.77 820.869C204.346 820.869 197.217 814.18 197.217 802.705C197.217 791.182 204.346 784.541 213.77 784.541C223.096 784.541 230.273 791.182 230.273 802.705ZM222.803 802.705C222.803 795.137 219.238 791.035 213.77 791.035C208.301 791.035 204.688 795.137 204.688 802.705C204.688 810.273 208.301 814.375 213.77 814.375C219.238 814.375 222.803 810.273 222.803 802.705ZM235.4 820.381V793.867H242.383V798.457H242.676C243.652 795.186 246.094 793.477 249.072 793.477C249.805 793.477 250.732 793.574 251.367 793.721V800.166C250.684 799.971 249.316 799.775 248.291 799.775C245.02 799.775 242.627 802.07 242.627 805.293V820.381H235.4ZM263.818 820.82C257.764 820.82 253.027 815.986 253.027 807.148C253.027 798.066 257.959 793.525 263.818 793.525C268.262 793.525 270.361 796.162 271.338 798.311H271.582V785.029H278.809V820.381H271.68V816.133H271.338C270.312 818.33 268.115 820.82 263.818 820.82ZM266.064 815.059C269.678 815.059 271.729 811.885 271.729 807.1C271.729 802.314 269.678 799.287 266.064 799.287C262.402 799.287 260.449 802.461 260.449 807.1C260.449 811.787 262.402 815.059 266.064 815.059ZM296.631 820.918C288.525 820.918 283.545 815.645 283.545 807.246C283.545 799.043 288.574 793.525 296.338 793.525C303.32 793.525 308.789 797.92 308.789 806.953V809.004H290.674C290.674 813.008 293.066 815.498 296.777 815.498C299.219 815.498 300.977 814.424 301.709 812.812H308.594C307.568 817.695 303.174 820.918 296.631 820.918ZM290.674 804.463H301.953C301.953 801.24 299.707 798.945 296.484 798.945C293.164 798.945 290.796 801.411 290.674 804.463ZM313.33 820.381V793.867H320.312V798.457H320.605C321.582 795.186 324.023 793.477 327.002 793.477C327.734 793.477 328.662 793.574 329.297 793.721V800.166C328.613 799.971 327.246 799.775 326.221 799.775C322.949 799.775 320.557 802.07 320.557 805.293V820.381H313.33ZM350.391 820.381H342.48L354.736 785.029H364.16L376.367 820.381H368.506L365.869 812.227H353.076L350.391 820.381ZM354.932 806.514H364.014L359.57 792.988H359.326L354.932 806.514ZM387.451 785.029V820.381H380.225V785.029H387.451ZM13.7695 880.918C5.76172 880.918 0.78125 875.4 0.78125 867.197C0.78125 858.994 5.76172 853.525 13.7695 853.525C21.7773 853.525 26.8066 858.994 26.8066 867.197C26.8066 875.4 21.7773 880.918 13.7695 880.918ZM13.8184 875.303C17.5293 875.303 19.4336 871.836 19.4336 867.197C19.4336 862.51 17.5293 859.043 13.8184 859.043C10.0586 859.043 8.10547 862.51 8.10547 867.197C8.10547 871.836 10.0586 875.303 13.8184 875.303ZM38.5742 865.049V880.381H31.3477V853.867H38.2324V858.506H38.5254C39.7461 855.43 42.5781 853.525 46.4844 853.525C52.002 853.525 55.6641 857.285 55.6152 863.486V880.381H48.4375V864.756C48.4375 861.484 46.6309 859.531 43.6523 859.531C40.625 859.531 38.5742 861.533 38.5742 865.049ZM73.2422 880.918C65.1367 880.918 60.1562 875.645 60.1562 867.246C60.1562 859.043 65.1855 853.525 72.9492 853.525C79.9316 853.525 85.4004 857.92 85.4004 866.953V869.004H67.2852C67.2852 873.008 69.6777 875.498 73.3887 875.498C75.8301 875.498 77.5879 874.424 78.3203 872.812H85.2051C84.1797 877.695 79.7852 880.918 73.2422 880.918ZM67.2852 864.463H78.5645C78.5645 861.24 76.3184 858.945 73.0957 858.945C69.7754 858.945 67.4072 861.411 67.2852 864.463ZM141.309 857.285V862.363H135.01V884.775H128.76V840.439H135.01V857.285H141.309ZM107.568 844.688V868.76C113.257 868.687 119.36 868.149 125.781 866.855L126.416 872.031C118.994 873.545 111.768 873.936 105.225 873.936H101.367V844.688H107.568ZM181.592 843.076V847.422H145.117V843.076H160.303V840H166.553V843.076H181.592ZM163.428 848.545C173.291 848.545 178.369 850.254 178.369 854.111C178.369 857.529 174.365 859.263 166.553 859.629V861.68H183.691V866.123H143.164V861.68H160.303V859.629C152.441 859.263 148.438 857.529 148.486 854.111C148.438 850.254 153.516 848.545 163.428 848.545ZM163.428 852.5C157.373 852.5 155.127 852.939 155.127 854.111C155.127 855.283 157.373 855.771 163.428 855.771C169.385 855.771 171.777 855.283 171.777 854.111C171.777 852.939 169.385 852.5 163.428 852.5ZM178.76 867.979V878.135H154.199V880.234H179.932V884.58H147.9V874.082H172.412V872.275H147.852V867.979H178.76ZM227.051 874.814V879.941H186.377V874.814H203.516V868.125H191.064V853.184H216.211V848.301H191.016V843.32H222.363V858.066H197.314V863.047H223.389V868.125H209.717V874.814H227.051Z" fill="#9EA39B" fill-opacity="0.05"/>
<path d="M89.1113 82.7051C89.1113 94.2285 81.9336 100.869 72.6074 100.869C63.1836 100.869 56.0547 94.1797 56.0547 82.7051C56.0547 71.1816 63.1836 64.541 72.6074 64.541C81.9336 64.541 89.1113 71.1816 89.1113 82.7051ZM81.6406 82.7051C81.6406 75.1367 78.0762 71.0352 72.6074 71.0352C67.1387 71.0352 63.5254 75.1367 63.5254 82.7051C63.5254 90.2734 67.1387 94.375 72.6074 94.375C78.0762 94.375 81.6406 90.2734 81.6406 82.7051ZM94.2383 100.381V73.8672H101.221V78.457H101.514C102.49 75.1855 104.932 73.4766 107.91 73.4766C108.643 73.4766 109.57 73.5742 110.205 73.7207V80.166C109.521 79.9707 108.154 79.7754 107.129 79.7754C103.857 79.7754 101.465 82.0703 101.465 85.293V100.381H94.2383ZM122.656 100.82C116.602 100.82 111.865 95.9863 111.865 87.1484C111.865 78.0664 116.797 73.5254 122.656 73.5254C127.1 73.5254 129.199 76.1621 130.176 78.3105H130.42V65.0293H137.646V100.381H130.518V96.1328H130.176C129.15 98.3301 126.953 100.82 122.656 100.82ZM124.902 95.0586C128.516 95.0586 130.566 91.8848 130.566 87.0996C130.566 82.3145 128.516 79.2871 124.902 79.2871C121.24 79.2871 119.287 82.4609 119.287 87.0996C119.287 91.7871 121.24 95.0586 124.902 95.0586ZM155.469 100.918C147.363 100.918 142.383 95.6445 142.383 87.2461C142.383 79.043 147.412 73.5254 155.176 73.5254C162.158 73.5254 167.627 77.9199 167.627 86.9531V89.0039H149.512C149.512 93.0078 151.904 95.498 155.615 95.498C158.057 95.498 159.814 94.4238 160.547 92.8125H167.432C166.406 97.6953 162.012 100.918 155.469 100.918ZM149.512 84.4629H160.791C160.791 81.2402 158.545 78.9453 155.322 78.9453C152.002 78.9453 149.634 81.4111 149.512 84.4629ZM172.168 100.381V73.8672H179.15V78.457H179.443C180.42 75.1855 182.861 73.4766 185.84 73.4766C186.572 73.4766 187.5 73.5742 188.135 73.7207V80.166C187.451 79.9707 186.084 79.7754 185.059 79.7754C181.787 79.7754 179.395 82.0703 179.395 85.293V100.381H172.168ZM209.229 100.381H201.318L213.574 65.0293H222.998L235.205 100.381H227.344L224.707 92.2266H211.914L209.229 100.381ZM213.77 86.5137H222.852L218.408 72.9883H218.164L213.77 86.5137ZM246.289 65.0293V100.381H239.062V65.0293H246.289ZM263.818 100.918C255.811 100.918 250.83 95.4004 250.83 87.1973C250.83 78.9941 255.811 73.5254 263.818 73.5254C271.826 73.5254 276.855 78.9941 276.855 87.1973C276.855 95.4004 271.826 100.918 263.818 100.918ZM263.867 95.3027C267.578 95.3027 269.482 91.8359 269.482 87.1973C269.482 82.5098 267.578 79.043 263.867 79.043C260.107 79.043 258.154 82.5098 258.154 87.1973C258.154 91.8359 260.107 95.3027 263.867 95.3027ZM288.623 85.0488V100.381H281.396V73.8672H288.281V78.5059H288.574C289.795 75.4297 292.627 73.5254 296.533 73.5254C302.051 73.5254 305.713 77.2852 305.664 83.4863V100.381H298.486V84.7559C298.486 81.4844 296.68 79.5312 293.701 79.5312C290.674 79.5312 288.623 81.5332 288.623 85.0488ZM323.291 100.918C315.186 100.918 310.205 95.6445 310.205 87.2461C310.205 79.043 315.234 73.5254 322.998 73.5254C329.98 73.5254 335.449 77.9199 335.449 86.9531V89.0039H317.334C317.334 93.0078 319.727 95.498 323.438 95.498C325.879 95.498 327.637 94.4238 328.369 92.8125H335.254C334.229 97.6953 329.834 100.918 323.291 100.918ZM317.334 84.4629H328.613C328.613 81.2402 326.367 78.9453 323.145 78.9453C319.824 78.9453 317.456 81.4111 317.334 84.4629Z" fill="#3F940A"/>
</svg>
